<?xml version="1.0" encoding="utf-8"?>
<svg viewBox="22.05 14.899 359.356 134.684" xmlns="http://www.w3.org/2000/svg">
  <path d="M 73.452 26.852 L 77.573 26.852 L 82.345 27.286 L 86.682 28.154 L 91.888 29.889 L 96.442 32.058 L 100.129 34.443 L 103.166 36.829 L 105.334 38.781 L 104.901 39.649 L 97.31 47.239 L 96.442 47.022 L 94.49 45.287 L 91.236 43.119 L 87.766 41.384 L 84.947 40.299 L 81.26 39.431 L 77.573 38.998 L 73.669 38.998 L 69.982 39.431 L 66.295 40.299 L 62.825 41.601 L 58.704 43.769 L 55.234 46.372 L 53.065 48.324 L 51.113 50.71 L 49.378 53.096 L 47.426 56.566 L 46.124 59.819 L 45.257 62.639 L 44.606 66.109 L 44.389 68.061 L 44.389 72.832 L 45.04 77.387 L 46.341 81.941 L 48.076 85.845 L 50.246 89.316 L 52.198 91.701 L 53.282 92.786 L 53.282 93.219 L 54.15 93.653 L 56.535 95.822 L 59.788 97.991 L 63.909 99.943 L 67.162 101.027 L 71.5 101.895 L 74.103 102.112 L 77.139 102.112 L 81.477 101.678 L 86.031 100.594 L 89.285 99.292 L 92.538 97.557 L 95.358 95.388 L 97.96 93.003 L 100.129 90.183 L 101.864 86.713 L 102.949 83.46 L 103.816 79.122 L 103.816 78.905 L 75.404 78.688 L 75.404 66.976 L 75.621 66.759 L 115.528 66.759 L 115.962 67.844 L 116.179 69.796 L 116.179 78.255 L 115.528 83.026 L 114.444 87.58 L 112.925 91.701 L 110.323 96.69 L 108.371 99.292 L 106.419 101.461 L 105.551 102.546 L 103.816 104.064 L 101.647 106.016 L 97.743 108.618 L 93.623 110.787 L 89.501 112.305 L 85.164 113.39 L 80.61 114.04 L 77.139 114.257 L 74.103 114.257 L 69.114 113.823 L 63.909 112.739 L 59.355 111.221 L 55.017 109.269 L 51.329 107.1 L 48.293 104.931 L 45.474 102.546 L 41.787 98.859 L 38.967 95.171 L 37.015 92.135 L 34.847 88.014 L 32.895 82.809 L 31.81 78.255 L 31.377 75.218 L 31.16 72.398 L 31.16 68.711 L 31.593 64.157 L 32.678 59.169 L 34.196 54.614 L 36.582 49.626 L 39.184 45.504 L 41.136 43.119 L 43.088 40.95 L 46.558 37.48 L 50.896 34.226 L 55.017 31.841 L 58.704 30.106 L 64.56 28.154 L 68.897 27.286 L 73.452 26.852 Z" fill="#4285F4" style="" transform="matrix(1, 0, 0, 1, 7.105427357601002e-15, 0)"/>
  <path d="M 266.48 58.084 L 272.553 58.084 L 276.457 58.952 L 279.927 60.47 L 282.964 62.639 L 284.482 64.157 L 284.699 64.157 L 284.916 59.602 L 296.41 59.602 L 296.627 59.819 L 296.627 112.088 L 296.194 116.86 L 295.326 120.981 L 294.025 124.668 L 292.29 128.138 L 290.338 130.741 L 288.386 132.91 L 285.349 135.295 L 281.663 137.247 L 277.758 138.548 L 274.071 139.199 L 271.686 139.416 L 268.215 139.416 L 264.528 138.982 L 261.275 138.115 L 258.022 136.813 L 254.985 135.078 L 252.383 133.126 L 248.913 129.656 L 246.527 126.186 L 245.009 123.15 L 245.009 122.716 L 251.082 120.113 L 255.202 118.378 L 255.853 118.378 L 257.154 120.981 L 259.54 124.017 L 262.36 126.186 L 264.745 127.27 L 266.914 127.921 L 268.649 128.138 L 271.251 128.138 L 274.288 127.704 L 277.758 126.403 L 280.144 124.668 L 281.879 122.716 L 283.614 119.245 L 284.482 115.558 L 284.699 113.173 L 284.699 107.967 L 284.265 107.967 L 282.747 109.702 L 280.578 111.221 L 277.108 112.956 L 274.071 113.823 L 270.385 114.257 L 266.263 114.04 L 262.36 113.173 L 258.889 111.872 L 255.419 109.92 L 252.817 107.967 L 249.997 105.365 L 247.611 102.329 L 245.659 99.075 L 244.141 95.388 L 243.274 92.352 L 242.84 90.183 L 242.622 87.797 L 242.622 84.544 L 243.057 80.857 L 244.141 76.736 L 245.659 73.266 L 247.394 70.23 L 249.78 67.193 L 252.817 64.157 L 255.853 61.988 L 259.974 59.819 L 263.227 58.734 L 266.48 58.084 Z M 268.215 69.145 L 264.745 70.23 L 261.925 71.748 L 259.106 74.35 L 257.588 76.519 L 256.287 79.122 L 255.419 81.941 L 254.985 84.978 L 254.985 87.363 L 255.419 90.399 L 256.504 93.653 L 258.022 96.473 L 260.407 99.075 L 262.143 100.594 L 265.613 102.329 L 267.998 102.979 L 271.468 103.196 L 274.939 102.546 L 277.542 101.461 L 279.71 99.943 L 281.446 98.425 L 283.398 95.605 L 284.482 93.436 L 285.349 90.617 L 285.783 87.363 L 285.783 84.978 L 285.133 80.857 L 283.831 77.387 L 281.879 74.35 L 279.493 71.965 L 276.674 70.23 L 274.071 69.362 L 272.987 69.145 L 268.215 69.145 Z" fill="#4285F4" style="" transform="matrix(1, 0, 0, 1, 7.105427357601002e-15, 0)"/>
  <path d="M 206.62 58.084 L 213.56 58.084 L 218.115 58.952 L 222.236 60.47 L 225.489 62.205 L 228.091 64.157 L 230.26 66.109 L 231.779 67.627 L 234.165 70.88 L 235.9 74.35 L 237.201 77.82 L 238.068 81.725 L 238.285 83.893 L 238.285 88.448 L 237.635 92.569 L 236.55 96.256 L 235.032 99.726 L 233.08 102.762 L 231.128 105.148 L 228.742 107.534 L 225.489 109.92 L 221.802 111.872 L 217.464 113.39 L 213.777 114.04 L 211.608 114.257 L 208.572 114.257 L 204.885 113.823 L 201.197 112.956 L 197.944 111.655 L 194.691 109.92 L 191.221 107.317 L 188.184 104.281 L 185.799 100.811 L 184.064 97.557 L 182.763 93.653 L 182.112 90.617 L 181.895 88.664 L 181.895 83.46 L 182.546 79.338 L 183.63 75.652 L 185.365 71.965 L 187.534 68.711 L 189.919 66.109 L 191.438 64.59 L 194.691 62.205 L 198.378 60.253 L 202.933 58.734 L 206.62 58.084 Z M 207.704 69.145 L 204.451 70.013 L 201.849 71.314 L 199.896 72.832 L 197.727 75.001 L 195.993 77.82 L 194.691 81.291 L 194.258 83.676 L 194.258 88.448 L 194.908 91.484 L 195.993 94.304 L 197.294 96.473 L 199.246 98.641 L 201.414 100.594 L 204.885 102.329 L 207.487 102.979 L 210.957 103.196 L 214.645 102.546 L 217.681 101.244 L 220.067 99.509 L 222.236 97.34 L 224.188 94.304 L 225.272 91.484 L 225.923 88.231 L 225.923 83.893 L 225.272 80.64 L 223.971 77.387 L 222.019 74.567 L 219.633 72.181 L 216.813 70.446 L 213.56 69.362 L 212.476 69.145 L 207.704 69.145 Z" fill="#FBBC05" style="" transform="matrix(1, 0, 0, 1, 7.105427357601002e-15, 0)"/>
  <path d="M 145.892 58.084 L 152.616 58.084 L 156.302 58.734 L 159.772 59.819 L 164.327 61.988 L 166.713 63.723 L 169.749 66.325 L 172.135 69.145 L 174.521 73.049 L 176.039 76.736 L 176.907 79.99 L 177.34 82.592 L 177.34 89.533 L 176.473 94.087 L 174.955 98.208 L 173.003 101.678 L 171.051 104.281 L 168.665 106.883 L 165.629 109.269 L 161.942 111.438 L 157.387 113.173 L 153.049 114.04 L 150.664 114.257 L 147.844 114.257 L 143.94 113.823 L 139.819 112.739 L 135.698 111.004 L 132.228 108.835 L 128.975 106.016 L 127.023 103.847 L 125.505 101.678 L 123.553 98.208 L 122.035 94.087 L 121.167 89.749 L 121.167 82.375 L 122.035 78.037 L 123.553 73.916 L 125.722 70.013 L 127.674 67.627 L 129.842 65.241 L 132.879 62.855 L 136.349 60.904 L 138.735 59.819 L 142.205 58.734 L 145.892 58.084 Z M 146.759 69.145 L 144.157 69.796 L 140.687 71.531 L 138.518 73.266 L 136.566 75.435 L 134.831 78.472 L 133.746 81.941 L 133.313 85.194 L 133.313 87.146 L 133.746 90.399 L 134.831 93.653 L 136.132 96.039 L 138.084 98.425 L 140.036 100.16 L 142.205 101.461 L 144.808 102.546 L 148.278 103.196 L 150.229 103.196 L 153.7 102.546 L 156.302 101.461 L 158.688 99.943 L 160.857 97.991 L 162.592 95.605 L 164.111 92.569 L 164.978 89.098 L 165.195 85.628 L 164.761 81.941 L 163.677 78.472 L 161.942 75.435 L 159.339 72.615 L 156.302 70.663 L 153.7 69.579 L 151.748 69.145 L 146.759 69.145 Z" fill="#EA4335" style="" transform="matrix(1, 0, 0, 1, 7.105427357601002e-15, 0)"/>
  <path d="M 344.342 58.084 L 350.849 58.084 L 354.102 58.734 L 357.355 59.819 L 360.175 61.337 L 362.561 63.072 L 364.729 65.024 L 366.464 66.759 L 369.067 70.446 L 371.236 74.567 L 372.754 78.472 L 372.538 79.338 L 337.402 93.87 L 335.45 94.521 L 336.968 97.123 L 338.92 99.292 L 340.438 100.594 L 343.475 102.112 L 346.077 102.762 L 348.029 102.979 L 349.981 102.979 L 353.018 102.546 L 355.837 101.461 L 357.789 100.377 L 359.958 98.641 L 361.91 96.473 L 362.994 95.388 L 372.104 101.461 L 372.321 101.895 L 370.151 104.714 L 367.115 107.751 L 363.862 110.137 L 360.392 111.872 L 356.922 113.173 L 352.801 114.04 L 350.198 114.257 L 348.029 114.257 L 343.692 113.823 L 339.57 112.739 L 335.45 111.004 L 332.414 109.052 L 330.028 107.1 L 327.642 104.714 L 325.256 101.461 L 323.521 98.208 L 322.22 94.738 L 321.353 90.834 L 321.135 89.316 L 321.135 82.592 L 321.786 78.688 L 322.871 75.218 L 324.389 71.748 L 326.558 68.277 L 329.16 65.458 L 330.896 63.723 L 333.715 61.771 L 336.968 60.036 L 340.872 58.734 L 344.342 58.084 Z M 345.861 68.928 L 343.041 69.796 L 340.438 71.097 L 338.486 72.615 L 336.534 74.567 L 334.799 77.387 L 333.932 79.556 L 333.281 82.809 L 333.281 85.194 L 335.233 84.544 L 345.644 80.207 L 354.536 76.519 L 358.223 75.001 L 358.44 74.567 L 357.138 72.615 L 355.62 71.097 L 353.885 70.013 L 351.282 69.145 L 350.198 68.928 L 345.861 68.928 Z" fill="#EA4335" style="" transform="matrix(1, 0, 0, 1, 7.105427357601002e-15, 0)"/>
  <path d="M 303.785 30.106 L 315.93 30.106 L 315.93 112.522 L 304.002 112.522 L 303.785 112.305 L 303.785 30.106 Z" fill="#34A753" style="" transform="matrix(1, 0, 0, 1, 7.105427357601002e-15, 0)"/>
</svg>